<mxfile host="app.diagrams.net" agent="Mozilla/5.0 (Windows NT 10.0; Win64; x64) AppleWebKit/537.36 (KHTML, like Gecko) Chrome/136.0.0.0 Safari/537.36" version="26.2.14">
  <diagram name="Page-1" id="ZinVj5FfuvgevC-Y9StO">
    <mxGraphModel dx="1426" dy="743" grid="1" gridSize="10" guides="1" tooltips="1" connect="1" arrows="1" fold="1" page="1" pageScale="1" pageWidth="850" pageHeight="1100" math="0" shadow="0">
      <root>
        <mxCell id="0" />
        <mxCell id="1" parent="0" />
        <mxCell id="-e9Z4vCBqaRf6TijC1H8-26" value="" style="rounded=1;whiteSpace=wrap;html=1;dashed=1;" parent="1" vertex="1">
          <mxGeometry x="600" y="276" width="120" height="130" as="geometry" />
        </mxCell>
        <mxCell id="-e9Z4vCBqaRf6TijC1H8-21" value="" style="edgeStyle=orthogonalEdgeStyle;rounded=0;orthogonalLoop=1;jettySize=auto;html=1;" parent="1" edge="1">
          <mxGeometry relative="1" as="geometry">
            <mxPoint x="480" y="337" as="sourcePoint" />
            <mxPoint x="600" y="337" as="targetPoint" />
            <Array as="points">
              <mxPoint x="510" y="337" />
              <mxPoint x="510" y="337" />
            </Array>
          </mxGeometry>
        </mxCell>
        <mxCell id="-e9Z4vCBqaRf6TijC1H8-17" value="" style="rounded=1;whiteSpace=wrap;html=1;dashed=1;" parent="1" vertex="1">
          <mxGeometry x="110" y="290" width="370" height="130" as="geometry" />
        </mxCell>
        <mxCell id="Qj-REOe8gSzXRsSnBS_q-2" value="" style="edgeStyle=orthogonalEdgeStyle;rounded=0;orthogonalLoop=1;jettySize=auto;html=1;" edge="1" parent="1" source="-e9Z4vCBqaRf6TijC1H8-6" target="Qj-REOe8gSzXRsSnBS_q-1">
          <mxGeometry relative="1" as="geometry">
            <Array as="points">
              <mxPoint x="275" y="160" />
              <mxPoint x="275" y="160" />
            </Array>
          </mxGeometry>
        </mxCell>
        <mxCell id="-e9Z4vCBqaRf6TijC1H8-6" value="" style="rounded=1;whiteSpace=wrap;html=1;" parent="1" vertex="1">
          <mxGeometry x="130" y="35" width="310" height="115" as="geometry" />
        </mxCell>
        <mxCell id="-e9Z4vCBqaRf6TijC1H8-1" value="" style="verticalLabelPosition=bottom;html=1;verticalAlign=top;align=center;strokeColor=none;fillColor=#00BEF2;shape=mxgraph.azure.laptop;pointerEvents=1;" parent="1" vertex="1">
          <mxGeometry x="160" y="50" width="50" height="30" as="geometry" />
        </mxCell>
        <mxCell id="-e9Z4vCBqaRf6TijC1H8-2" value="" style="html=1;verticalLabelPosition=bottom;align=center;labelBackgroundColor=#ffffff;verticalAlign=top;strokeWidth=2;strokeColor=#0080F0;shadow=0;dashed=0;shape=mxgraph.ios7.icons.smartphone;" parent="1" vertex="1">
          <mxGeometry x="360" y="50" width="18" height="30" as="geometry" />
        </mxCell>
        <mxCell id="-e9Z4vCBqaRf6TijC1H8-3" value="Web Browser" style="text;html=1;align=center;verticalAlign=middle;whiteSpace=wrap;rounded=0;" parent="1" vertex="1">
          <mxGeometry x="155" y="90" width="60" height="30" as="geometry" />
        </mxCell>
        <mxCell id="-e9Z4vCBqaRf6TijC1H8-4" value="Mobile App" style="text;html=1;align=center;verticalAlign=middle;whiteSpace=wrap;rounded=0;" parent="1" vertex="1">
          <mxGeometry x="340" y="90" width="60" height="30" as="geometry" />
        </mxCell>
        <mxCell id="-e9Z4vCBqaRf6TijC1H8-5" value="" style="image;sketch=0;aspect=fixed;html=1;points=[];align=center;fontSize=12;image=img/lib/mscae/DNS.svg;" parent="1" vertex="1">
          <mxGeometry x="580" y="60" width="50" height="50" as="geometry" />
        </mxCell>
        <mxCell id="-e9Z4vCBqaRf6TijC1H8-7" value="" style="endArrow=classic;html=1;rounded=0;entryX=0.189;entryY=0;entryDx=0;entryDy=0;entryPerimeter=0;exitX=0.02;exitY=0.96;exitDx=0;exitDy=0;exitPerimeter=0;" parent="1" target="-e9Z4vCBqaRf6TijC1H8-17" edge="1" source="Qj-REOe8gSzXRsSnBS_q-1">
          <mxGeometry width="50" height="50" relative="1" as="geometry">
            <mxPoint x="180" y="150" as="sourcePoint" />
            <mxPoint x="180" y="240" as="targetPoint" />
          </mxGeometry>
        </mxCell>
        <mxCell id="-e9Z4vCBqaRf6TijC1H8-8" value="" style="endArrow=classic;html=1;rounded=0;entryX=0.7;entryY=-0.015;entryDx=0;entryDy=0;entryPerimeter=0;exitX=0.98;exitY=0.96;exitDx=0;exitDy=0;exitPerimeter=0;" parent="1" target="-e9Z4vCBqaRf6TijC1H8-17" edge="1" source="Qj-REOe8gSzXRsSnBS_q-1">
          <mxGeometry width="50" height="50" relative="1" as="geometry">
            <mxPoint x="368.5" y="150" as="sourcePoint" />
            <mxPoint x="368.5" y="240" as="targetPoint" />
          </mxGeometry>
        </mxCell>
        <mxCell id="-e9Z4vCBqaRf6TijC1H8-10" value="" style="sketch=0;outlineConnect=0;fontColor=#232F3E;gradientColor=none;fillColor=#232F3D;strokeColor=none;dashed=0;verticalLabelPosition=bottom;verticalAlign=top;align=center;html=1;fontSize=12;fontStyle=0;aspect=fixed;pointerEvents=1;shape=mxgraph.aws4.traditional_server;" parent="1" vertex="1">
          <mxGeometry x="162.75" y="300" width="45" height="78" as="geometry" />
        </mxCell>
        <mxCell id="-e9Z4vCBqaRf6TijC1H8-11" value="Server 1" style="text;html=1;align=center;verticalAlign=middle;whiteSpace=wrap;rounded=0;" parent="1" vertex="1">
          <mxGeometry x="146.25" y="380" width="77.5" height="30" as="geometry" />
        </mxCell>
        <mxCell id="-e9Z4vCBqaRf6TijC1H8-12" value="" style="endArrow=classic;html=1;rounded=0;entryX=0;entryY=0.2;entryDx=0;entryDy=0;entryPerimeter=0;" parent="1" target="-e9Z4vCBqaRf6TijC1H8-5" edge="1">
          <mxGeometry width="50" height="50" relative="1" as="geometry">
            <mxPoint x="440" y="70" as="sourcePoint" />
            <mxPoint x="560" y="70" as="targetPoint" />
          </mxGeometry>
        </mxCell>
        <mxCell id="-e9Z4vCBqaRf6TijC1H8-13" value="" style="endArrow=classic;html=1;rounded=0;entryX=1;entryY=0.496;entryDx=0;entryDy=0;entryPerimeter=0;" parent="1" target="-e9Z4vCBqaRf6TijC1H8-6" edge="1">
          <mxGeometry width="50" height="50" relative="1" as="geometry">
            <mxPoint x="580" y="92" as="sourcePoint" />
            <mxPoint x="450" y="92" as="targetPoint" />
          </mxGeometry>
        </mxCell>
        <mxCell id="-e9Z4vCBqaRf6TijC1H8-14" value="api.mysite.com" style="text;html=1;align=center;verticalAlign=middle;whiteSpace=wrap;rounded=0;" parent="1" vertex="1">
          <mxGeometry x="473" y="48" width="60" height="30" as="geometry" />
        </mxCell>
        <mxCell id="-e9Z4vCBqaRf6TijC1H8-15" value="IP address" style="text;html=1;align=center;verticalAlign=middle;whiteSpace=wrap;rounded=0;" parent="1" vertex="1">
          <mxGeometry x="480" y="86" width="60" height="30" as="geometry" />
        </mxCell>
        <mxCell id="-e9Z4vCBqaRf6TijC1H8-18" value="www.mysite.com" style="text;html=1;align=center;verticalAlign=middle;whiteSpace=wrap;rounded=0;" parent="1" vertex="1">
          <mxGeometry x="95" y="180" width="60" height="30" as="geometry" />
        </mxCell>
        <mxCell id="-e9Z4vCBqaRf6TijC1H8-19" value="api.mysite.com" style="text;html=1;align=center;verticalAlign=middle;whiteSpace=wrap;rounded=0;" parent="1" vertex="1">
          <mxGeometry x="390" y="179" width="60" height="30" as="geometry" />
        </mxCell>
        <mxCell id="-e9Z4vCBqaRf6TijC1H8-20" value="DB" style="strokeWidth=2;html=1;shape=mxgraph.flowchart.database;whiteSpace=wrap;fillColor=#2A2A2A;fontColor=#FFFFFF;" parent="1" vertex="1">
          <mxGeometry x="631" y="300" width="60" height="82" as="geometry" />
        </mxCell>
        <mxCell id="-e9Z4vCBqaRf6TijC1H8-22" value="" style="edgeStyle=orthogonalEdgeStyle;rounded=0;orthogonalLoop=1;jettySize=auto;html=1;" parent="1" edge="1">
          <mxGeometry relative="1" as="geometry">
            <mxPoint x="599" y="358" as="sourcePoint" />
            <mxPoint x="479" y="358" as="targetPoint" />
            <Array as="points">
              <mxPoint x="509" y="358" />
              <mxPoint x="509" y="358" />
            </Array>
          </mxGeometry>
        </mxCell>
        <mxCell id="-e9Z4vCBqaRf6TijC1H8-23" value="read/write/update" style="text;html=1;align=center;verticalAlign=middle;whiteSpace=wrap;rounded=0;" parent="1" vertex="1">
          <mxGeometry x="504" y="314" width="60" height="30" as="geometry" />
        </mxCell>
        <mxCell id="-e9Z4vCBqaRf6TijC1H8-25" value="return data" style="text;html=1;align=center;verticalAlign=middle;whiteSpace=wrap;rounded=0;" parent="1" vertex="1">
          <mxGeometry x="500" y="334" width="74" height="30" as="geometry" />
        </mxCell>
        <mxCell id="Qj-REOe8gSzXRsSnBS_q-1" value="" style="verticalLabelPosition=bottom;html=1;verticalAlign=top;align=center;strokeColor=none;fillColor=#00BEF2;shape=mxgraph.azure.azure_load_balancer;" vertex="1" parent="1">
          <mxGeometry x="250" y="200" width="50" height="35" as="geometry" />
        </mxCell>
        <mxCell id="Qj-REOe8gSzXRsSnBS_q-3" value="" style="sketch=0;outlineConnect=0;fontColor=#232F3E;gradientColor=none;fillColor=#232F3D;strokeColor=none;dashed=0;verticalLabelPosition=bottom;verticalAlign=top;align=center;html=1;fontSize=12;fontStyle=0;aspect=fixed;pointerEvents=1;shape=mxgraph.aws4.traditional_server;" vertex="1" parent="1">
          <mxGeometry x="346.75" y="306" width="45" height="78" as="geometry" />
        </mxCell>
        <mxCell id="Qj-REOe8gSzXRsSnBS_q-4" value="Server 2" style="text;html=1;align=center;verticalAlign=middle;whiteSpace=wrap;rounded=0;" vertex="1" parent="1">
          <mxGeometry x="330.25" y="386" width="77.5" height="30" as="geometry" />
        </mxCell>
        <mxCell id="Qj-REOe8gSzXRsSnBS_q-5" value="" style="shape=table;startSize=0;container=1;collapsible=0;childLayout=tableLayout;fontSize=16;" vertex="1" parent="1">
          <mxGeometry x="540" y="125" width="160" height="45" as="geometry" />
        </mxCell>
        <mxCell id="Qj-REOe8gSzXRsSnBS_q-10" value="" style="shape=tableRow;horizontal=0;startSize=0;swimlaneHead=0;swimlaneBody=0;strokeColor=inherit;top=0;left=0;bottom=0;right=0;collapsible=0;dropTarget=0;fillColor=none;points=[[0,0.5],[1,0.5]];portConstraint=eastwest;fontSize=16;" vertex="1" parent="Qj-REOe8gSzXRsSnBS_q-5">
          <mxGeometry width="160" height="20" as="geometry" />
        </mxCell>
        <mxCell id="Qj-REOe8gSzXRsSnBS_q-11" value="Domain" style="shape=partialRectangle;html=1;whiteSpace=wrap;connectable=0;strokeColor=inherit;overflow=hidden;fillColor=none;top=0;left=0;bottom=0;right=0;pointerEvents=1;fontSize=16;" vertex="1" parent="Qj-REOe8gSzXRsSnBS_q-10">
          <mxGeometry width="80" height="20" as="geometry">
            <mxRectangle width="80" height="20" as="alternateBounds" />
          </mxGeometry>
        </mxCell>
        <mxCell id="Qj-REOe8gSzXRsSnBS_q-12" value="IP Address" style="shape=partialRectangle;html=1;whiteSpace=wrap;connectable=0;strokeColor=inherit;overflow=hidden;fillColor=none;top=0;left=0;bottom=0;right=0;pointerEvents=1;fontSize=16;" vertex="1" parent="Qj-REOe8gSzXRsSnBS_q-10">
          <mxGeometry x="80" width="80" height="20" as="geometry">
            <mxRectangle width="80" height="20" as="alternateBounds" />
          </mxGeometry>
        </mxCell>
        <mxCell id="Qj-REOe8gSzXRsSnBS_q-14" value="" style="shape=tableRow;horizontal=0;startSize=0;swimlaneHead=0;swimlaneBody=0;strokeColor=inherit;top=0;left=0;bottom=0;right=0;collapsible=0;dropTarget=0;fillColor=none;points=[[0,0.5],[1,0.5]];portConstraint=eastwest;fontSize=16;" vertex="1" parent="Qj-REOe8gSzXRsSnBS_q-5">
          <mxGeometry y="20" width="160" height="25" as="geometry" />
        </mxCell>
        <mxCell id="Qj-REOe8gSzXRsSnBS_q-15" value="mysite.com" style="shape=partialRectangle;html=1;whiteSpace=wrap;connectable=0;strokeColor=inherit;overflow=hidden;fillColor=none;top=0;left=0;bottom=0;right=0;pointerEvents=1;fontSize=16;" vertex="1" parent="Qj-REOe8gSzXRsSnBS_q-14">
          <mxGeometry width="80" height="25" as="geometry">
            <mxRectangle width="80" height="25" as="alternateBounds" />
          </mxGeometry>
        </mxCell>
        <mxCell id="Qj-REOe8gSzXRsSnBS_q-16" value="88.88.88.1" style="shape=partialRectangle;html=1;whiteSpace=wrap;connectable=0;strokeColor=inherit;overflow=hidden;fillColor=none;top=0;left=0;bottom=0;right=0;pointerEvents=1;fontSize=16;" vertex="1" parent="Qj-REOe8gSzXRsSnBS_q-14">
          <mxGeometry x="80" width="80" height="25" as="geometry">
            <mxRectangle width="80" height="25" as="alternateBounds" />
          </mxGeometry>
        </mxCell>
      </root>
    </mxGraphModel>
  </diagram>
</mxfile>
